<svg xmlns="http://www.w3.org/2000/svg" xmlns:xlink="http://www.w3.org/1999/xlink" xmlns:xodm="http://www.corel.com/coreldraw/odm/2003" xml:space="preserve" version="1.1" style="shape-rendering:geometricPrecision;text-rendering:geometricPrecision;image-rendering:optimizeQuality;" viewBox="0 0 8.4666 10.58325" x="0px" y="0px" fill-rule="evenodd" clip-rule="evenodd"><defs><style type="text/css">
   
    .fil0 {fill:black;fill-rule:nonzero}
   
  </style></defs><g><path class="fil0" d="M2.6672 3.687l0.969 -1.5416c0.0497,-0.0789 0.154,-0.1026 0.2329,-0.0529 0.0228,0.0144 0.041,0.0334 0.0542,0.055l0.969 1.5416c0.0362,0.0575 0.0334,0.1286 -0.0013,0.1821l-0.969 1.5417c-0.0497,0.0789 -0.154,0.1026 -0.2329,0.0529 -0.0228,-0.0144 -0.041,-0.0334 -0.0542,-0.055l-0.969 -1.5417c-0.0362,-0.0575 -0.0334,-0.1286 0.0013,-0.1821zm4.2907 -1.9434c0,-0.0935 0.0759,-0.1694 0.1694,-0.1694 0.0935,0 0.1694,0.0759 0.1694,0.1694l0 5.8879c0,0.1716 -0.0702,0.3276 -0.1831,0.4405 -0.1129,0.1129 -0.2689,0.1831 -0.4405,0.1831l-3.9712 0c-0.0935,0 -0.1694,-0.0759 -0.1694,-0.1694 0,-0.0935 0.0759,-0.1694 0.1694,-0.1694l3.9712 0c0.0783,0 0.1495,-0.0321 0.2011,-0.0837 0.0516,-0.0516 0.0837,-0.1228 0.0837,-0.2011l0 -5.8879zm-0.4542 -0.4542c0,-0.0935 0.0759,-0.1694 0.1694,-0.1694 0.0935,0 0.1694,0.0759 0.1694,0.1694l0 5.8879c0,0.1716 -0.0702,0.3276 -0.1831,0.4405 -0.1129,0.1129 -0.2689,0.1831 -0.4405,0.1831l-3.9712 0c-0.0935,0 -0.1694,-0.0759 -0.1694,-0.1694 0,-0.0935 0.0759,-0.1694 0.1694,-0.1694l3.9712 0c0.0783,0 0.1495,-0.0321 0.2011,-0.0837 0.0516,-0.0516 0.0837,-0.1228 0.0837,-0.2011l0 -5.8879zm-1.5475 4.811l0.3322 -0.5284c0.0497,-0.0789 0.154,-0.1026 0.2329,-0.0529 0.0228,0.0144 0.041,0.0334 0.0542,0.055l0.3321 0.5284c0.0362,0.0575 0.0334,0.1286 -0.0013,0.1821l-0.3321 0.5284c-0.0497,0.0789 -0.154,0.1026 -0.2329,0.0529 -0.0228,-0.0144 -0.041,-0.0334 -0.0542,-0.0549l-0.3322 -0.5285c-0.0362,-0.0575 -0.0334,-0.1286 0.0013,-0.1821zm0.4751 -0.1211l-0.134 0.2132 0.134 0.2132 0.1339 -0.2132 -0.1339 -0.2132zm-3.7794 -4.7057l0.3321 -0.5284c0.0497,-0.0789 0.154,-0.1026 0.2329,-0.0529 0.0228,0.0144 0.041,0.0334 0.0542,0.055l0.3321 0.5284c0.0362,0.0575 0.0334,0.1286 -0.0013,0.1821l-0.3321 0.5284c-0.0497,0.0789 -0.154,0.1026 -0.2329,0.0529 -0.0228,-0.0144 -0.041,-0.0334 -0.0542,-0.055l-0.3321 -0.5284c-0.0362,-0.0575 -0.0334,-0.1286 0.0013,-0.1821zm0.475 -0.121l-0.1339 0.2131 0.1339 0.2131 0.1339 -0.2131 -0.1339 -0.2131zm-0.3334 -0.941l3.9712 0c0.1716,0 0.3276,0.0702 0.4405,0.1831 0.1129,0.1129 0.1831,0.2689 0.1831,0.4405l0 5.8879c0,0.1716 -0.0702,0.3276 -0.1831,0.4405 -0.1129,0.1129 -0.2689,0.1831 -0.4405,0.1831l-3.9712 0c-0.1716,0 -0.3276,-0.0702 -0.4405,-0.1831 -0.1129,-0.1129 -0.1831,-0.2689 -0.1831,-0.4405l0 -5.8879c0,-0.1716 0.0702,-0.3276 0.1831,-0.4405 0.1129,-0.1129 0.2689,-0.1831 0.4405,-0.1831zm3.9712 0.3388l-3.9712 0c-0.0783,0 -0.1495,0.0321 -0.2011,0.0837 -0.0516,0.0516 -0.0837,0.1228 -0.0837,0.2011l0 5.8879c0,0.0783 0.0321,0.1495 0.0837,0.2011 0.0516,0.0516 0.1228,0.0837 0.2011,0.0837l3.9712 0c0.0783,0 0.1495,-0.0321 0.2011,-0.0837 0.0516,-0.0516 0.0837,-0.1228 0.0837,-0.2011l0 -5.8879c0,-0.0783 -0.0321,-0.1495 -0.0837,-0.2011 -0.0516,-0.0516 -0.1228,-0.0837 -0.2011,-0.0837zm-1.9856 2.0023l-0.7708 1.2264 0.7708 1.2264 0.7708 -1.2264 -0.7708 -1.2264z"/></g><text x="0" y="23.4666" fill="#000000" font-size="5px" font-weight="bold" font-family="'Helvetica Neue', Helvetica, Arial-Unicode, Arial, Sans-serif">Created by Lula Sugiantoro</text><text x="0" y="28.4666" fill="#000000" font-size="5px" font-weight="bold" font-family="'Helvetica Neue', Helvetica, Arial-Unicode, Arial, Sans-serif">from the Noun Project</text></svg>