<svg xmlns="http://www.w3.org/2000/svg" xmlns:xlink="http://www.w3.org/1999/xlink" version="1.1" x="0px" y="0px" viewBox="0 0 64 80" enable-background="new 0 0 64 64" xml:space="preserve"><g><g><path d="M50,5H14c-0.552,0-1,0.447-1,1v52c0,0.553,0.448,1,1,1h36c0.552,0,1-0.447,1-1V6C51,5.447,50.552,5,50,5z M49,57H15V7h34    V57z"/><path d="M17,56h30c0.552,0,1-0.447,1-1V9c0-0.553-0.448-1-1-1H17c-0.552,0-1,0.447-1,1v46C16,55.553,16.448,56,17,56z M18,10h28    v44H18V10z"/><path d="M44,46.031c-0.552,0-1,0.447-1,1V52c0,0.553,0.448,1,1,1s1-0.447,1-1v-4.969C45,46.479,44.552,46.031,44,46.031z"/><path d="M20,11c-0.552,0-1,0.447-1,1v5c0,0.553,0.448,1,1,1s1-0.447,1-1v-5C21,11.447,20.552,11,20,11z"/><path d="M34.756,27.6C33.634,26.84,33,26.369,33,25.539c0-0.553-0.448-1-1-1s-1,0.447-1,1c0,0.83-0.634,1.301-1.756,2.061    c-1.297,0.878-2.911,1.972-2.911,4.278c0,2.024,1.301,3.33,3.53,3.613l-0.355,2.846c-0.036,0.284,0.053,0.57,0.243,0.786    c0.189,0.215,0.463,0.338,0.75,0.338h3c0.007-0.001,0.013-0.001,0.02,0c0.552,0,1-0.447,1-1c0-0.111-0.019-0.22-0.052-0.319    l-0.331-2.648c0.682-0.086,1.279-0.266,1.782-0.54c0.797-0.434,1.748-1.319,1.748-3.075C37.667,29.571,36.053,28.478,34.756,27.6z     M34.962,33.197c-0.424,0.23-1.041,0.353-1.785,0.353l-0.145-0.002c-0.311-0.008-0.57,0.115-0.764,0.33    c-0.194,0.216-0.286,0.506-0.25,0.794l0.349,2.789h-0.734l0.349-2.789c0.036-0.288-0.055-0.578-0.25-0.794    c-0.195-0.215-0.458-0.338-0.764-0.33l-0.145,0.002c-2.489,0-2.489-1.215-2.489-1.672c0-1.186,0.772-1.769,2.033-2.623    c0.541-0.366,1.142-0.774,1.634-1.296c0.492,0.521,1.093,0.93,1.634,1.296c1.26,0.854,2.033,1.438,2.033,2.623    C35.667,32.707,35.29,33.019,34.962,33.197z"/></g></g><text x="0" y="79" fill="#000000" font-size="5px" font-weight="bold" font-family="'Helvetica Neue', Helvetica, Arial-Unicode, Arial, Sans-serif">Created by farra nugraha</text><text x="0" y="84" fill="#000000" font-size="5px" font-weight="bold" font-family="'Helvetica Neue', Helvetica, Arial-Unicode, Arial, Sans-serif">from the Noun Project</text></svg>